<svg width="60" height="60" viewBox="0 0 60 60" fill="none" xmlns="http://www.w3.org/2000/svg">
<path d="M18.4727 15.9663H20.2347V17.7253H18.4727V15.9663Z" fill="#DF9034"/>
<path d="M21.9985 15.9663H23.7606V17.7253H21.9985V15.9663Z" fill="#DF9034"/>
<path d="M49.6244 14.3838L51.3237 13.9184C51.1607 13.3254 50.9662 12.7338 50.7455 12.1602L49.1006 12.791C49.3005 13.3106 49.4767 13.8464 49.6244 14.3838Z" fill="#DF9034"/>
<path d="M28.9287 3.66064H30.6908V5.41963H28.9287V3.66064Z" fill="#DF9034"/>
<path d="M26.9475 31.9338L25.3076 31.29C24.1977 34.1977 19.9915 34.2541 18.7872 31.3922L17.1685 32.0875C18.976 36.3811 25.2841 36.2929 26.9475 31.9338Z" fill="#DF9034"/>
<path d="M37.788 33.5192C36.3778 33.5192 35.1063 32.6835 34.5489 31.3901L32.9302 32.0854C34.7059 36.31 40.8708 36.3087 42.6457 32.0858L41.0272 31.3904C40.4697 32.6835 39.1982 33.5192 37.788 33.5192Z" fill="#DF9034"/>
<path d="M43.4475 28.1337L44.655 26.8527C43.2055 25.4911 41.311 24.7412 39.3207 24.7412H32.6641V26.5002H39.3207C40.8605 26.5002 42.3261 27.0803 43.4475 28.1337Z" fill="#DF9034"/>
<path d="M27.3218 26.5002V24.7412H20.5872C18.5969 24.7412 16.7025 25.4911 15.2529 26.8527L16.4604 28.1337C17.5819 27.0803 19.0474 26.5002 20.5871 26.5002H27.3218Z" fill="#DF9034"/>
<path d="M25.1773 43.3354L24.1655 44.7756C27.313 47.3327 32.6027 47.3327 35.7501 44.7756L34.7383 43.3354C32.2448 45.2731 27.4838 45.2799 25.1773 43.3354Z" fill="#DF9034"/>
<path d="M46.3537 43.9562C47.2218 41.8739 47.8104 39.641 48.1367 37.1391C50.5191 35.6619 51.9859 33.0268 51.9859 30.2209V18.9813C51.9537 17.6475 51.8813 16.4734 51.7319 15.7609L49.9941 16.0523C50.3792 17.7068 50.1766 24.5905 50.224 26.5196H48.3875C48.3615 14.5943 40.4882 6.17379 28.0758 7.24453C25.9629 6.05906 25.9407 3.05449 28.0432 1.85402H33.1577C39.6488 1.85402 45.4958 5.45203 48.417 11.244L49.991 10.453C46.8968 4.19414 40.1656 0.0305859 33.1576 0.0952734C26.3183 -0.0046875 20.3265 -0.322617 14.7524 4.40812L12.3373 0L9.61139 4.97531L4.62744 7.69641L9.78466 10.6165C8.60321 12.5866 8.09044 15.5412 7.9201 18.6823V30.2211C7.92021 33.0271 9.39397 35.6621 11.7765 37.1393C12.3919 43.4333 15.9715 49.9678 21.1297 53.8698V60H22.8918V55.1181C25.0745 56.5246 27.4402 57.5363 29.9467 58.1393C32.4408 57.5399 34.834 56.5052 37.0261 55.0939V60H38.7882V53.8444C39.8652 53.0065 40.8778 52.0734 41.8097 51.0555L44.0523 55.1486L46.7782 50.1732L51.7621 47.4521L46.7782 44.7311L46.3537 43.9562ZM50.2306 28.2787C50.3025 30.8024 50.3196 32.8221 48.4373 34.7236V28.2787H50.2306ZM8.29963 7.69629L10.9098 6.27129L12.3373 3.66574L13.7648 6.27129L16.3749 7.69629L13.7648 9.12129L12.3373 11.7268L10.9098 9.12129L8.29963 7.69629ZM9.68229 18.8973C9.68229 16.7367 10.0765 14.6538 10.8528 12.6832L12.3374 15.3928L15.0633 10.4175L20.0472 7.69641L16.1299 5.55773C18.815 3.4241 22.0732 2.15285 25.4945 1.90125C24.3289 3.56098 24.4585 6.01969 25.798 7.54336C16.4046 9.09059 11.4905 17.4172 11.4342 26.5198H9.68229V18.8973ZM9.68229 30.2209V28.2787H11.4276V34.7299C10.2486 33.5463 9.68229 31.9238 9.68229 30.2209ZM29.9467 56.3249C15.5708 52.4391 12.3712 39.7937 13.192 26.8399L15.6874 24.3489C19.6951 20.4089 23.016 23.678 27.5437 19.6903L26.3829 18.3668C21.679 22.2766 19.0485 17.9299 13.3405 24.2039C13.7584 20.5016 14.9973 17.1819 16.8934 14.6822C22.5525 6.62297 39.0067 7.11234 43.8058 15.8579C44.8762 17.5849 45.5493 19.375 45.9731 21.2196C42.4389 16.3084 36.9556 13.0495 30.8277 12.3612V10.6298H29.0656C29.141 13.0604 29.0406 15.186 27.482 17.188L28.8878 18.2487C29.8205 17.0168 30.4286 15.6102 30.6862 14.1151C37.6713 14.9167 43.743 19.3695 46.5901 25.8231C46.5424 30.7321 47.0238 37.3356 45.2409 41.9252L44.0523 39.7557L41.3264 44.7311L36.3425 47.4521L40.5954 49.7741C37.7033 52.9696 33.9647 55.2751 29.9467 56.3249ZM45.4798 48.8773L44.0523 51.4828L42.6248 48.8773L40.0147 47.4523L42.6248 46.0273L44.0523 43.4217L45.4798 46.0273L48.09 47.4523L45.4798 48.8773Z" fill="#DF9034"/>
<path d="M54.6278 38.7744H52.8657V40.5335H51.1035V42.2925H52.8657V44.0516H54.6278V42.2925H56.39V40.5335H54.6278V38.7744Z" fill="#DF9034"/>
<path d="M3.52415 12.4658H1.76208V14.2248H0V15.9839H1.76208V17.7429H3.52415V15.9839H5.28635V14.2248H3.52415V12.4658Z" fill="#DF9034"/>
<path d="M58.2378 35.2588H59.9999V37.0178H58.2378V35.2588Z" fill="#DF9034"/>
<path d="M58.2378 45.8057H59.9999V47.5647H58.2378V45.8057Z" fill="#DF9034"/>
</svg>
