<svg width="60" height="60" viewBox="0 0 60 60" fill="none" xmlns="http://www.w3.org/2000/svg">
<g clip-path="url(#clip0_88_1494)">
<path d="M30.0003 0.934082C13.9606 0.934082 0.934082 13.9606 0.934082 30.0003C0.934082 46.0399 13.9606 59.0595 30.0003 59.0595C46.0399 59.0595 59.0595 46.0399 59.0595 30.0003C59.0595 13.9606 46.0399 0.934082 30.0003 0.934082ZM30.0003 2.80954C45.0266 2.80954 57.1841 14.9739 57.1841 30.0003C57.1841 45.0266 45.0266 57.1841 30.0003 57.1841C14.9739 57.1841 2.80954 45.0266 2.80954 30.0003C2.80954 14.9739 14.9739 2.80954 30.0003 2.80954Z" fill="#DF9034"/>
<path d="M30.0004 6.56055C17.0673 6.56055 6.56055 17.0673 6.56055 30.0004C6.56055 42.9334 17.0673 53.4402 30.0004 53.4402C42.9334 53.4402 53.4402 42.9334 53.4402 30.0004C53.4402 17.0673 42.9334 6.56055 30.0004 6.56055ZM30.0004 8.43601C41.9201 8.43601 51.5647 18.0806 51.5647 30.0004C51.5647 41.9201 41.9201 51.5647 30.0004 51.5647C18.0806 51.5647 8.43601 41.9201 8.43601 30.0004C8.43601 18.0806 18.0806 8.43601 30.0004 8.43601Z" fill="#DF9034"/>
<path d="M12.1867 32.8101C12.0636 32.8105 11.9417 32.8352 11.8281 32.8827C11.7145 32.9302 11.6113 32.9997 11.5246 33.0871C11.4378 33.1745 11.3691 33.2781 11.3224 33.3921C11.2757 33.5061 11.252 33.6281 11.2524 33.7512C11.2533 33.9988 11.352 34.2359 11.527 34.4109C11.7021 34.586 11.9392 34.6847 12.1867 34.6855H47.8136C48.0611 34.6847 48.2982 34.586 48.4733 34.4109C48.6483 34.2359 48.747 33.9988 48.7478 33.7512C48.7483 33.6281 48.7245 33.5061 48.6778 33.3921C48.6311 33.2781 48.5625 33.1745 48.4757 33.0871C48.3889 32.9997 48.2858 32.9302 48.1722 32.8827C48.0586 32.8352 47.9367 32.8105 47.8136 32.8101H12.1867Z" fill="#DF9034"/>
<path d="M30.0004 37.5024C27.9405 37.5024 26.2495 39.1934 26.2495 41.2534C26.2495 43.3133 27.9405 44.9974 30.0004 44.9974C32.0604 44.9974 33.7514 43.3133 33.7514 41.2534C33.7514 39.1934 32.0604 37.5024 30.0004 37.5024ZM30.0004 39.3779C31.0471 39.3779 31.8759 40.2067 31.8759 41.2534C31.8759 42.3 31.0471 43.1219 30.0004 43.1219C28.9538 43.1219 28.125 42.3 28.125 41.2534C28.125 40.2067 28.9538 39.3779 30.0004 39.3779Z" fill="#DF9034"/>
<path d="M39.3774 37.5024C37.3174 37.5024 35.6265 39.1934 35.6265 41.2534C35.6265 43.3133 37.3174 44.9974 39.3774 44.9974C41.4373 44.9974 43.1214 43.3133 43.1214 41.2534C43.1214 39.1934 41.4373 37.5024 39.3774 37.5024ZM39.3774 39.3779C40.424 39.3779 41.2528 40.2067 41.2528 41.2534C41.2528 42.3 40.424 43.1219 39.3774 43.1219C38.3307 43.1219 37.5019 42.3 37.5019 41.2534C37.5019 40.2067 38.3307 39.3779 39.3774 39.3779Z" fill="#DF9034"/>
<path d="M20.623 37.5024C18.563 37.5024 16.8721 39.1934 16.8721 41.2534C16.8721 43.3133 18.563 44.9974 20.623 44.9974C22.683 44.9974 24.3739 43.3133 24.3739 41.2534C24.3739 39.1934 22.683 37.5024 20.623 37.5024ZM20.623 39.3779C21.6696 39.3779 22.4985 40.2067 22.4985 41.2534C22.4985 42.3 21.6696 43.1219 20.623 43.1219C19.5764 43.1219 18.7475 42.3 18.7475 41.2534C18.7475 40.2067 19.5764 39.3779 20.623 39.3779Z" fill="#DF9034"/>
<path d="M29.336 11.5226C29.336 11.5226 27.6529 13.2121 25.9657 15.5019C24.2785 17.7917 22.4985 20.6585 22.4985 23.4397C22.4985 27.5708 25.8694 30.9347 30.0004 30.9347C34.1314 30.9347 37.5022 27.5708 37.5022 23.4397C37.5022 20.6585 35.7223 17.7917 34.035 15.5019C32.3478 13.2121 30.6648 11.5226 30.6648 11.5226C30.2983 11.1546 29.7025 11.1546 29.336 11.5226ZM30.0004 13.5602C30.0004 13.5602 31.2642 14.8962 32.5264 16.6092C34.1204 18.7725 35.6268 21.5335 35.6268 23.4397C35.6268 26.5574 33.1181 29.0592 30.0004 29.0592C26.8827 29.0592 24.374 26.5574 24.374 23.4397C24.374 21.5335 25.8804 18.7725 27.4744 16.6092C28.7366 14.8962 30.0004 13.5602 30.0004 13.5602Z" fill="#DF9034"/>
<path d="M33.862 23.4676C33.3614 23.3381 32.8505 23.6385 32.7201 24.1389C32.4887 25.0345 31.8377 25.7581 30.9692 26.0766C30.4812 26.2536 30.2299 26.7934 30.4087 27.2808C30.5856 27.7688 31.1255 28.0201 31.6128 27.8413C33.0578 27.3114 34.1552 26.0996 34.5402 24.6095C34.6692 24.1067 34.3652 23.5948 33.862 23.4676Z" fill="#DF9034"/>
</g>
<defs>
<clipPath id="clip0_88_1494">
<rect width="60" height="60" fill="white"/>
</clipPath>
</defs>
</svg>
