<svg width="60" height="60" viewBox="0 0 60 60" fill="none" xmlns="http://www.w3.org/2000/svg">
<mask id="mask0_88_1505" style="mask-type:luminance" maskUnits="userSpaceOnUse" x="0" y="0" width="60" height="60">
<path d="M0 0H60V60H0V0Z" fill="white"/>
</mask>
<g mask="url(#mask0_88_1505)">
<path d="M35.2736 1.65304C48.6764 4.13073 58.8281 15.8797 58.8281 30C58.8281 45.9213 45.9213 58.8281 30 58.8281C14.0787 58.8281 1.17188 45.9213 1.17188 30C1.17188 15.8797 11.3235 4.13073 24.7264 1.65304" stroke="#DF9034" stroke-width="2" stroke-miterlimit="10" stroke-linecap="round" stroke-linejoin="round"/>
<path d="M31.1719 1.17187C31.1719 1.81898 30.6471 2.34375 30 2.34375C29.3529 2.34375 28.8281 1.81898 28.8281 1.17187C28.8281 0.524765 29.3529 -2.38419e-07 30 -2.38419e-07C30.6471 -2.38419e-07 31.1719 0.524765 31.1719 1.17187Z" fill="#DF9034"/>
<path d="M33.994 22.6891L30.5464 26.1367" stroke="#DF9034" stroke-width="2" stroke-miterlimit="10" stroke-linejoin="round"/>
<path d="M16.1602 40.5242L11.3602 45.3242C7.92422 41.1535 5.85938 35.8134 5.85938 29.9996C5.85938 16.6884 16.6887 5.85899 30 5.85899C35.8137 5.85899 41.1538 7.92395 45.3245 11.3599L39.2729 17.4115" stroke="#DF9034" stroke-width="2" stroke-miterlimit="10" stroke-linejoin="round"/>
<path d="M41.0383 22.2773L48.6401 14.6755C52.076 18.8462 54.141 24.1863 54.141 30C54.141 43.3113 43.3116 54.1406 30.0004 54.1406C24.1866 54.1406 18.8465 52.0758 14.6758 48.6398L18.8452 44.4704" stroke="#DF9034" stroke-width="2" stroke-miterlimit="10" stroke-linejoin="round"/>
<path d="M46.8136 35.0598C44.8963 36.9772 41.8178 37.1471 39.2634 35.6882C39.0439 36.4705 38.7373 37.3657 38.3026 38.3255C37.8861 39.2433 37.4386 40.0319 37.0147 40.6916H38.0756C39.4055 40.6925 40.4815 41.7685 40.4825 43.0985C40.4825 44.4274 39.4055 45.5044 38.0756 45.5044H35.4995C34.1075 45.5044 32.7617 45.0381 31.6454 44.2066C31.3146 43.9604 30.9661 43.7344 30.5993 43.5422C28.8778 42.6433 26.7964 43.5971 25.1897 44.6878C23.9596 45.5228 23.1224 45.5044 21.671 45.5044C20.6208 45.5044 19.6316 44.9812 18.7514 44.4084C16.0087 42.6237 15.6704 38.9549 15.6704 35.6882C15.6704 30.2664 21.6561 25.871 27.9204 25.871C30.7718 25.871 33.3767 26.7812 35.3695 28.2845C35.5363 27.1083 36.0451 26.013 36.906 25.1522C36.9554 25.1038 37.005 25.0554 37.0555 25.008C36.3582 24.4819 35.6599 23.9569 34.9616 23.4317C33.3973 22.2535 31.6842 20.9065 30.8019 19.0547C29.9444 17.2556 29.571 14.2524 31.4325 12.9269C35.7126 9.87866 39.1957 16.566 40.206 19.697C40.6235 20.9903 41.0399 22.2837 41.4585 23.5771C43.1091 23.7125 44.7994 24.469 46.1475 25.8183C48.8838 28.5534 49.1818 32.6915 46.8136 35.0598Z" stroke="#DF9034" stroke-width="2" stroke-miterlimit="10" stroke-linecap="round" stroke-linejoin="round"/>
<path d="M16.2764 32.3105C16.2764 33.605 15.227 34.6543 13.9326 34.6543C12.6382 34.6543 11.5889 33.605 11.5889 32.3105C11.5889 31.0162 12.6382 29.9668 13.9326 29.9668C15.227 29.9668 16.2764 31.0162 16.2764 32.3105Z" stroke="#DF9034" stroke-width="2" stroke-miterlimit="10" stroke-linecap="round" stroke-linejoin="round"/>
<path d="M43.7451 28.9453C43.7451 29.5924 43.2205 30.1172 42.5732 30.1172C41.9261 30.1172 41.4014 29.5924 41.4014 28.9453C41.4014 28.2982 41.9261 27.7734 42.5732 27.7734C43.2205 27.7734 43.7451 28.2982 43.7451 28.9453Z" fill="#DF9034"/>
</g>
</svg>
