<svg width="26" height="26" viewBox="0 0 26 26" fill="none" xmlns="http://www.w3.org/2000/svg">
<g clip-path="url(#clip0_903_168)">
<path d="M24.1719 6.5H19.0938C19.0938 4.88384 18.4517 3.33387 17.3089 2.19107C16.1661 1.04827 14.6162 0.40625 13 0.40625C11.3838 0.40625 9.83387 1.04827 8.69107 2.19107C7.54827 3.33387 6.90625 4.88384 6.90625 6.5H1.82812C1.2894 6.5 0.772748 6.71401 0.391814 7.09494C0.010881 7.47587 -0.203125 7.99253 -0.203125 8.53125V23.7656C-0.203125 24.3043 0.010881 24.821 0.391814 25.2019C0.772748 25.5829 1.2894 25.7969 1.82812 25.7969H24.1719C24.7106 25.7969 25.2273 25.5829 25.6082 25.2019C25.9891 24.821 26.2031 24.3043 26.2031 23.7656V8.53125C26.2031 7.99253 25.9891 7.47587 25.6082 7.09494C25.2273 6.71401 24.7106 6.5 24.1719 6.5ZM13 2.4375C14.0774 2.4375 15.1108 2.86551 15.8726 3.62738C16.6345 4.38925 17.0625 5.42256 17.0625 6.5H8.9375C8.9375 5.42256 9.36551 4.38925 10.1274 3.62738C10.8892 2.86551 11.9226 2.4375 13 2.4375ZM24.1719 23.7656H1.82812V8.53125H6.90625V10.5625C6.90625 10.8319 7.01325 11.0902 7.20372 11.2807C7.39419 11.4711 7.65251 11.5781 7.92188 11.5781C8.19124 11.5781 8.44956 11.4711 8.64003 11.2807C8.8305 11.0902 8.9375 10.8319 8.9375 10.5625V8.53125H17.0625V10.5625C17.0625 10.8319 17.1695 11.0902 17.36 11.2807C17.5504 11.4711 17.8088 11.5781 18.0781 11.5781C18.3475 11.5781 18.6058 11.4711 18.7963 11.2807C18.9867 11.0902 19.0938 10.8319 19.0938 10.5625V8.53125H24.1719V23.7656Z" fill="black"/>
</g>
<defs>
<clipPath id="clip0_903_168">
<rect width="26" height="26" fill="white"/>
</clipPath>
</defs>
</svg>
