<svg width="26" height="26" viewBox="0 0 26 26" fill="none" xmlns="http://www.w3.org/2000/svg">
<path d="M13.0012 3.89472C14.3937 2.64818 16.2107 1.98234 18.079 2.03402C19.9472 2.0857 21.7247 2.85098 23.0461 4.17259C24.3664 5.49273 25.1318 7.26791 25.1853 9.13423C25.2388 11.0006 24.5763 12.8166 23.3337 14.2102L12.9987 24.5598L2.66619 14.2102C1.42215 12.8159 0.759088 10.9983 0.813119 9.13045C0.86715 7.26262 1.63418 5.48635 2.95673 4.16629C4.27928 2.84624 6.057 2.08257 7.92492 2.03206C9.79285 1.98156 11.6092 2.64806 13.0012 3.89472ZM21.3204 5.89469C20.4399 5.0149 19.2562 4.50541 18.012 4.47074C16.7678 4.43606 15.5575 4.87884 14.6294 5.70822L13.0024 7.16828L11.3742 5.70944C10.4499 4.88299 9.24556 4.43974 8.0061 4.46987C6.76663 4.50001 5.58522 5.00127 4.70226 5.87165C3.8193 6.74203 3.30114 7.91613 3.25323 9.15504C3.20531 10.3939 3.63124 11.6046 4.44434 12.5405L13 21.1096L21.5556 12.5417C22.3653 11.6099 22.7913 10.4056 22.7476 9.17188C22.704 7.93817 22.1939 6.76697 21.3204 5.89469Z" fill="black"/>
</svg>
