<svg width="30" height="26" viewBox="0 0 30 26" fill="none" xmlns="http://www.w3.org/2000/svg">
<path d="M26.0469 3.05469C30.1484 6.5 29.5469 12.1328 26.6484 15.1406L17.0234 24.9297C16.4766 25.4766 15.7656 25.8047 15 25.8047C14.1797 25.8047 13.4688 25.4766 12.9219 24.9297L3.35156 15.1406C0.398438 12.1328 -0.203125 6.5 3.89844 3.05469C7.07031 0.375 11.9375 0.757812 15 3.875C18.0078 0.757812 22.875 0.375 26.0469 3.05469ZM24.7344 13.2812C26.7578 11.2578 27.1406 7.42969 24.3516 5.02344C22.2188 3.27344 18.9375 3.54688 16.9141 5.625L15 7.59375L13.0859 5.625C11.0078 3.54688 7.72656 3.27344 5.59375 5.07812C2.80469 7.42969 3.1875 11.2578 5.21094 13.2812L14.7812 23.0703C14.9453 23.1797 15.0547 23.1797 15.1641 23.0703L24.7344 13.2812Z" fill="#39FF14"/>
</svg>
