<svg width="26" height="26" viewBox="0 0 26 26" fill="none" xmlns="http://www.w3.org/2000/svg">
<g clip-path="url(#clip0_903_166)">
<path d="M20.3503 18.627L25.5702 23.8457L23.8457 25.5702L18.627 20.3503C16.6852 21.9069 14.2699 22.7535 11.7812 22.75C5.7265 22.75 0.8125 17.836 0.8125 11.7812C0.8125 5.7265 5.7265 0.8125 11.7812 0.8125C17.836 0.8125 22.75 5.7265 22.75 11.7812C22.7535 14.2699 21.9069 16.6852 20.3503 18.627ZM17.9055 17.7227C19.4522 16.132 20.316 13.9999 20.3125 11.7812C20.3125 7.06834 16.4942 3.25 11.7812 3.25C7.06834 3.25 3.25 7.06834 3.25 11.7812C3.25 16.4942 7.06834 20.3125 11.7812 20.3125C13.9999 20.316 16.132 19.4522 17.7227 17.9055L17.9055 17.7227Z" fill="black"/>
</g>
<defs>
<clipPath id="clip0_903_166">
<rect width="26" height="26" fill="white"/>
</clipPath>
</defs>
</svg>
