<svg width="19" height="19" viewBox="0 0 19 19" fill="none" xmlns="http://www.w3.org/2000/svg">
<g clip-path="url(#clip0_903_156)">
<path d="M18.2001 17.0234C17.0372 14.9823 15.2213 13.392 13.0447 12.5083C14.1271 11.6965 14.9266 10.5647 15.33 9.2733C15.7334 7.98185 15.7203 6.5962 15.2924 5.31264C14.8646 4.02908 14.0437 2.91268 12.9461 2.12157C11.8485 1.33046 10.5298 0.904755 9.17682 0.904755C7.82383 0.904755 6.50513 1.33046 5.40753 2.12157C4.30992 2.91268 3.48906 4.02908 3.0612 5.31264C2.63335 6.5962 2.6202 7.98185 3.02362 9.2733C3.42704 10.5647 4.22657 11.6965 5.30896 12.5083C3.13238 13.392 1.31646 14.9823 0.153518 17.0234C0.0814581 17.1392 0.0334304 17.2684 0.0122903 17.4032C-0.00884972 17.538 -0.00267077 17.6757 0.03046 17.8081C0.0635907 17.9404 0.122997 18.0648 0.205147 18.1737C0.287297 18.2827 0.390513 18.374 0.50866 18.4422C0.626807 18.5105 0.757473 18.5543 0.892889 18.5711C1.0283 18.5878 1.16571 18.5772 1.29693 18.5398C1.42815 18.5024 1.5505 18.4389 1.65673 18.3533C1.76295 18.2677 1.85087 18.1615 1.91526 18.0412C3.45222 15.3846 6.16651 13.8002 9.17682 13.8002C12.1871 13.8002 14.9014 15.3855 16.4384 18.0412C16.5779 18.2656 16.7993 18.4269 17.0556 18.4911C17.3119 18.5552 17.5831 18.5172 17.8119 18.385C18.0407 18.2528 18.2091 18.0369 18.2816 17.7828C18.354 17.5287 18.3248 17.2563 18.2001 17.0234ZM4.76611 7.35373C4.76611 6.48137 5.02479 5.6286 5.50945 4.90327C5.9941 4.17793 6.68296 3.6126 7.48891 3.27876C8.29487 2.94492 9.18171 2.85758 10.0373 3.02776C10.8929 3.19795 11.6788 3.61803 12.2957 4.23488C12.9125 4.85173 13.3326 5.63765 13.5028 6.49324C13.673 7.34883 13.5856 8.23568 13.2518 9.04163C12.918 9.84759 12.3526 10.5364 11.6273 11.0211C10.9019 11.5058 10.0492 11.7644 9.17682 11.7644C8.00744 11.7631 6.88634 11.298 6.05946 10.4711C5.23259 9.64421 4.76745 8.52311 4.76611 7.35373Z" fill="#F5F5F5"/>
</g>
<defs>
<clipPath id="clip0_903_156">
<rect width="19" height="19" fill="white"/>
</clipPath>
</defs>
</svg>
