<svg width="267" height="161" viewBox="0 0 267 161" fill="none" xmlns="http://www.w3.org/2000/svg">
<g clip-path="url(#clip0_234_659)">
<path d="M182.803 105.213C194.123 100.762 205.631 100.569 217.297 103.211C215.44 103.211 213.583 103.175 211.727 103.217C203.472 103.4 195.31 104.244 187.387 106.73C186.263 107.082 185.146 107.462 184.041 107.871C183.836 107.947 183.543 108.247 183.565 108.406C183.845 110.426 184.175 112.439 184.515 114.593C198.436 111.473 211.379 114.835 223.932 120.739C223.664 120.695 223.395 120.656 223.128 120.608C222.852 120.558 222.576 120.506 222.302 120.442C218.313 119.514 214.351 118.444 210.33 117.682C202.017 116.106 193.651 115.898 185.267 117.198C184.697 117.286 184.474 117.463 184.459 118.086C184.414 119.933 184.281 121.779 184.175 123.774C185.098 123.774 186.039 123.757 186.979 123.776C190.756 123.854 194.473 124.39 198.148 125.253C198.67 125.375 199.261 125.374 199.789 125.271C205.618 124.123 211.351 124.265 216.938 126.469C219.098 127.321 221.137 128.431 222.683 130.192C223.576 131.208 224.247 132.426 224.968 133.585C225.494 134.429 225.86 135.38 226.434 136.185C230.14 141.382 229.834 149.74 225.733 154.343C222.609 157.849 218.158 158.287 214.415 155.456C214.193 155.289 213.975 155.117 213.67 154.881C212.024 158.075 209.844 160.668 206.013 160.972C202.147 161.28 199.596 159.08 197.557 156.089C196.875 156.602 196.267 157.145 195.583 157.562C192.606 159.373 189.056 159.054 186.266 156.722C183.708 154.584 182.364 151.747 181.844 148.526C181.103 143.925 181.963 139.708 185.1 136.093C185.582 135.538 185.989 134.892 186.316 134.231C187.732 131.368 190.034 129.423 192.755 127.894C193.048 127.729 193.347 127.574 193.639 127.406C193.68 127.382 193.696 127.317 193.787 127.167C192.653 126.993 191.57 126.783 190.477 126.67C188.55 126.469 186.618 126.335 184.689 126.156C184.012 126.094 183.617 126.228 183.495 127.029C183.327 128.135 182.973 129.211 182.719 130.304C182.614 130.757 182.397 130.996 181.905 130.921C181.741 130.897 181.569 130.918 181.4 130.918C137.302 130.918 93.203 130.918 49.1049 130.935C48.2826 130.935 47.8955 130.801 47.7292 129.869C46.5325 123.166 45.8228 116.414 45.6711 109.612C45.5729 105.208 45.6238 100.799 45.7211 96.3947C45.7674 94.3026 45.5375 92.3004 44.637 90.4173C42.7252 86.4193 40.8579 82.3968 38.8125 78.4669C35.7876 72.6567 33.2288 66.6874 32.2157 60.1776C31.8995 58.1455 31.805 56.0325 31.9594 53.9822C32.3156 49.2429 35.5414 46.7093 40.2773 47.1681C43.4294 47.4733 46.2108 48.7806 48.945 50.244C56.7158 54.4037 64.5357 58.4762 72.2411 62.7539C76.4419 65.0858 80.5336 65.2376 84.7733 63.1173C94.0998 58.4534 104.161 56.6366 114.398 55.6301C117.286 55.3457 120.23 55.68 123.148 55.6382C124.683 55.6164 126.242 55.5256 127.746 55.2376C130.462 54.7171 132.338 52.8757 134.032 50.8381C139.97 43.6897 145.892 36.5286 151.841 29.3902C153.573 27.3118 155.455 25.3768 157.906 24.1232C159.586 23.2638 161.362 22.7497 163.269 23.0712C165.565 23.4582 167.036 24.968 168.145 26.8784C169.912 29.9235 170.625 33.2956 171.116 36.7303C171.907 42.2735 171.63 47.8203 171.209 53.3717C170.756 59.3664 170.383 65.3602 171.414 71.344C172.335 76.6873 174.166 81.7491 176.074 86.7926C178.12 92.1978 180.136 97.6138 182.151 103.03C182.402 103.706 182.567 104.414 182.802 105.211L182.803 105.213ZM115.133 129.88C117.13 129.739 118.717 128.983 119.889 127.414C120.443 126.672 120.974 125.912 121.471 125.132C122.608 123.347 123.622 121.498 123.825 119.341C124.064 116.8 122.596 115.236 120.07 115.323C119.515 115.342 118.96 115.462 118.413 115.577C116.986 115.879 115.572 116.249 114.138 116.507C112.26 116.844 110.364 117.074 108.483 117.396C105.307 117.939 104.144 120.535 105.828 123.275C106.019 123.585 106.229 123.885 106.458 124.168C108.164 126.275 110.346 127.806 112.673 129.121C113.402 129.533 114.307 129.635 115.132 129.879L115.133 129.88ZM154.627 94.06C154.628 88.2489 149.938 83.5014 144.182 83.4878C138.276 83.4742 133.528 88.1689 133.527 94.0246C133.527 99.8167 138.243 104.588 143.979 104.595C149.899 104.603 154.625 99.9266 154.627 94.06ZM90.0917 105.337C90.0726 99.4297 85.3858 94.7613 79.4841 94.7704C73.6832 94.7795 68.9518 99.5097 68.98 105.271C69.009 111.182 73.7186 115.879 79.5876 115.85C85.3812 115.822 90.1108 111.088 90.0926 105.337H90.0917Z" fill="black"/>
<path d="M252.534 130.302H225.182C225.615 128.238 226.104 126.224 226.454 124.184C227.73 116.75 227.224 109.372 225.714 102.02C223.938 93.3759 220.347 85.5389 215.606 78.1316C212.007 72.5103 208.58 66.769 205.327 60.9406C202.708 56.2477 200.774 51.2295 199.963 45.8635C198.803 38.1755 199.919 30.78 203.289 23.8033C209.512 10.9182 219.787 3.22478 233.826 0.61215C240.705 -0.667819 247.424 0.0280341 253.825 2.96588C258.241 4.99257 262.117 7.7351 264.601 12.0438C266.8 15.8564 267.757 19.9098 266.312 24.2421C264.699 29.0803 259.558 32.9893 254.507 33.1955C252.398 33.2818 250.4 32.6468 248.471 31.8365C247.125 31.2715 245.814 30.6201 244.456 30.0878C240.253 28.4381 236.173 28.7506 232.4 31.2351C229.904 32.8794 228.591 35.4484 227.72 38.2427C225.959 43.8913 226.767 49.1065 230.115 54.0293C233.16 58.5051 236.184 63.0145 238.893 67.6956C245.347 78.8493 249.751 90.7859 251.767 103.544C253.136 112.207 253.286 120.925 252.629 129.661C252.614 129.855 252.572 130.045 252.532 130.301L252.534 130.302Z" fill="black"/>
<path d="M31.4539 156.112C29.4485 159.074 26.8915 161.268 23.0406 160.97C19.2016 160.673 16.9944 158.111 15.4216 154.974C14.4257 155.567 13.5361 156.228 12.5475 156.661C9.19634 158.128 5.60714 157.134 3.06017 154.054C0.726739 151.232 -0.1065 147.896 0.0107164 144.315C0.121573 140.913 1.1638 137.815 3.39183 135.174C3.51541 135.028 3.62627 134.85 3.67715 134.668C4.69212 131.026 7.23727 128.665 10.5084 127.212C19.6941 123.13 28.7425 123.608 37.462 128.635C39.9862 130.091 41.9562 132.168 43.0084 134.983C43.0847 135.186 43.2065 135.39 43.3564 135.546C47.6635 140.003 48.275 145.261 46.5631 150.937C45.6408 153.996 43.8498 156.512 40.8821 157.918C37.6382 159.455 34.6578 158.808 31.9937 156.48C31.8883 156.389 31.7874 156.291 31.6774 156.203C31.6356 156.171 31.5757 156.161 31.4548 156.113L31.4539 156.112Z" fill="black"/>
<path d="M115.132 129.88C114.308 129.636 113.403 129.534 112.673 129.122C110.346 127.807 108.165 126.276 106.458 124.169C106.229 123.887 106.019 123.586 105.829 123.276C104.144 120.536 105.308 117.94 108.484 117.397C110.364 117.075 112.261 116.845 114.138 116.508C115.573 116.25 116.987 115.88 118.413 115.578C118.96 115.463 119.516 115.342 120.071 115.324C122.596 115.237 124.063 116.801 123.825 119.342C123.623 121.5 122.609 123.348 121.472 125.133C120.975 125.913 120.443 126.674 119.89 127.415C118.718 128.985 117.129 129.74 115.133 129.881L115.132 129.88Z" fill="white"/>
<path d="M154.627 94.0601C154.626 99.9267 149.9 104.603 143.979 104.595C138.243 104.587 133.526 99.8158 133.527 94.0246C133.527 88.1689 138.276 83.4742 144.182 83.4878C149.938 83.5014 154.629 88.2489 154.627 94.0601ZM138.673 88.168C141.236 88.8929 142.312 90.4772 141.663 92.474C141.377 93.3542 140.816 93.9865 139.988 94.3726C138.555 95.0412 137.293 94.5906 136.119 93.6086C135.697 97.2032 138.249 100.741 141.913 101.79C145.687 102.871 149.74 101 151.393 97.4121C153.06 93.7975 151.835 89.5207 148.5 87.3059C145.466 85.291 141.011 85.659 138.674 88.168H138.673Z" fill="white"/>
<path d="M90.0918 105.336C90.1109 111.088 85.3813 115.821 79.5868 115.85C73.7178 115.878 69.0091 111.181 68.9791 105.27C68.951 99.5088 73.6823 94.7786 79.4832 94.7695C85.3849 94.7605 90.0718 99.4289 90.0909 105.336H90.0918ZM71.5924 104.862C71.0772 108.292 73.6814 111.975 77.2552 113.013C81.1788 114.154 85.2795 112.252 86.8951 108.544C88.538 104.771 87.1641 100.505 83.6167 98.3651C80.59 96.5392 76.083 97.0442 74.133 99.4734C75.8104 99.7214 76.9935 100.557 77.2434 102.287C77.4406 103.653 76.9208 104.775 75.6914 105.484C74.223 106.329 72.8936 105.96 71.5933 104.864L71.5924 104.862Z" fill="white"/>
<path d="M138.673 88.1681C141.01 85.659 145.465 85.2911 148.499 87.306C151.834 89.5207 153.059 93.7976 151.392 97.4122C149.739 101 145.687 102.871 141.912 101.79C138.248 100.74 135.696 97.2033 136.118 93.6086C137.293 94.5915 138.554 95.0412 139.987 94.3726C140.815 93.9865 141.376 93.3552 141.662 92.474C142.312 90.4773 141.236 88.8921 138.672 88.1681H138.673Z" fill="black"/>
<path d="M71.5922 104.862C72.8915 105.958 74.2209 106.328 75.6902 105.482C76.9196 104.774 77.4394 103.651 77.2422 102.285C76.9932 100.556 75.8092 99.7194 74.1319 99.4714C76.0818 97.0423 80.5888 96.5372 83.6155 98.3632C87.1629 100.503 88.5377 104.769 86.894 108.542C85.2793 112.25 81.1785 114.152 77.254 113.012C73.6803 111.973 71.077 108.29 71.5913 104.86L71.5922 104.862Z" fill="black"/>
</g>
<defs>
<clipPath id="clip0_234_659">
<rect width="267" height="161" fill="white"/>
</clipPath>
</defs>
</svg>
